<svg xmlns="http://www.w3.org/2000/svg" xmlns:xlink="http://www.w3.org/1999/xlink" enable-background="new 0 0 3000 3000" viewBox="0 0 3000 3000" id="renovation-and-decoration-of-room">
  <switch>
    <g>
      <g>
        <g>
          <g>
            <g>
              <g>
                <g opacity=".1">
                  <g>
                    <path fill="#231f20" d="M968.189,2128.174c30.004,20.995,47.436,47.908,45.192,75.769
										c-4.539,55.686-86.168,94.064-182.258,85.688c-3.798-0.331-7.474-0.836-11.206-1.315
										c-61.425-7.509-89.769,3.995-96.591,39.475c-10.091,52.124-88.915,87.361-181.418,79.297
										c-48.045-4.188-90.622-19.264-120.619-40.255c-29.998-20.991-47.418-47.895-45.148-75.738
										c4.543-55.747,86.117-94.099,182.258-85.688c3.797,0.331,7.474,0.836,11.155,1.28c61.425,7.509,89.769-3.995,96.641-39.439
										c10.09-52.124,88.865-87.396,181.368-79.333C895.609,2092.103,938.185,2107.179,968.189,2128.174z"></path>
                  </g>
                </g>
                <g>
                  <g>
                    <g>
                      <path fill="#d1d3d4" d="M682.042,1064.824c-31.165-8.651-68.523,65.761-48.628,88.183
											c9.67,10.898,266.002,134.074,282.398,126.865c20.095-8.835,4.627-61.28-23.489-95.131
											C889.136,1180.904,700.801,1070.031,682.042,1064.824z"></path>
                    </g>
                  </g>
                  <g>
                    <g>
                      <g>
                        <path fill="#8c6a4f" d="M970.823,2174.766c0.631-23.82-80.823-24.494-143.621-21.187
												c-62.798,3.307-100.125-11.723-102.16,17.124c-0.437,6.2-0.258,8.168,0.103,15.117
												c0.979,18.841,11.508,34.451,54.583,35.128c4.494,0.071,19.896-5.943,24.566-5.857
												c28.328,0.523,79.382,11.56,113.308,6.255C949.238,2216.4,970.229,2197.194,970.823,2174.766z"></path>
                        <path fill="#2b2119" d="M970.56,2170.477c-1.14-15.134-66.689-35.531-121.618-37.331
												c-6.998-0.229-15.903-34.184-22.814-33.413c-40.029,4.466-77.935,26.378-93.583,27.945
												c-8.774,0.878-6.977,27.526-6.318,38.416c1.832,30.313,23.848,43.707,86.646,40.399
												c28.31-1.491,67.159,12.748,101.085,7.443C945.592,2208.991,972.244,2192.846,970.56,2170.477z"></path>
                        <path fill="#363636" d="M725.775,2133.564c22.893,45.208,137.497,15.845,123.972-14.124
												c5.737-224.626-33.319-460.986-57.357-593.816L631.372,1650.37C689.578,1842.235,705.564,1956.422,725.775,2133.564z"></path>
                        <path fill="#8c6a4f" d="M593.973,2270.089c0.956,52.995,11.179,89.435-46.696,90.789
												c-41.454,0.97-63.656-40.225-64.612-93.219c-0.956-52.995,30.576-98.143,61.152-98.693
												C574.394,2168.417,593.017,2217.094,593.973,2270.089z"></path>
                        <path fill="#2b2119" d="M595.431,2254.015c0.956,52.994,11.14,92.588-46.735,93.943
												c-41.455,0.97-63.616-43.379-64.573-96.374c-0.956-52.994,30.577-98.143,61.153-98.692
												C575.852,2152.343,594.475,2201.021,595.431,2254.015z"></path>
                        <path fill="#e6e7e8" d="M517.876,1122.934c7.741-3.361,18.343-5.69,30.134-8.431
												c19.559-4.547,83.212-38.551,91.536-41.421c25.726-4.319,70.841,17.831,95.52,59.992
												c47.936,81.891,63.432,217.707,61.16,350.12H561.044c-5.455-15.437-11.061-32.184-16.491-50.742
												c-11.57-39.54-77.094-185.009-82.889-225.064C456.207,1169.672,483.256,1137.965,517.876,1122.934z"></path>
                        <path fill="#4a4a4a" d="M668.742,1076.694c15.567,12.448,40.026,32.834,48.741,56.073l-21.808,11.496
												c-3.512-29.66-36.725-46.622-51.614-65.161C652.28,1076.295,661.726,1072.885,668.742,1076.694z"></path>
                        <path fill="#4a4a4a" d="M515.862,1375.802c-3.351-8.115,82.889-46.349,88.041-87.564
												c3.28-26.238-13.738-73.844-24.042-97.886c52.983-13.421,113.031-40.666,129.484-64.317
												c16.579,7.553,28.918,40.785,46.419,83.81c8.249,20.278,24.211,25.764,24.971,30.376
												c23.736,143.957,49.073,276.081-39.749,372.152c-35.341,38.225-72.354,429.27-136.651,605.758
												c-14.337,42.779-106.621,47.141-119.387-3.924c38.936-176.025,62.607-367.479,62.155-544.804
												C546.702,1511.554,520.774,1387.697,515.862,1375.802z"></path>
                        <path fill="#4a4a4a" d="M584.002,1199.955l17.307-10.831c-24.464-45.573-51.827-66.451-87.419-64.917
												c-5.531-0.142-15.401,4.941-16.878,10.211C533.631,1140.205,560.949,1160.635,584.002,1199.955z"></path>
                        <path fill="#ccaa92" d="M656.708,955.613l5.541,138.973c0,0,6.435,26.891-18.903,36.604
												c-37.136,14.235-91.188,0.206-94.902-15.886l-13.75-161.955L656.708,955.613z"></path>
                        <path fill="#e6bfa5" d="M501.193,998.124c10.869,34.511,27.988,52.452,58.07,64.757
												c27.107,11.088,59.124,30.404,87.147,23.455c31.953-7.924,45.696-64.058,30.325-124.132
												c-2.864-11.193-7.248-32.764-9.949-44.349c-2.159-9.26,2.992-19.833-12.904-40.643
												c-20.889-27.346-60.938-34.344-100.842-21.777C484.367,877.063,479.455,929.102,501.193,998.124z"></path>
                        <path fill="#382e28" d="M551.463,850.426c44.101-13.889,95.318,2.397,113.616,44.177
												c-8.124-10.291-14.471-15.154-20.616-15.967c-9.441-1.249-14.341,3.4-18.789,11.54
												c-17.066,3.518-32.986-0.719-59.208,12.821c-23.196,11.977-45.342,51.025-25.066,79.586
												c-2.051,6.932-4.665,9.958-9.033,19.216c-5.579-10.494-13.636-16.879-18.863-14.527
												c-5.726,2.577-5.878,14.647-0.339,26.96c3.75,8.336,9.145,14.632,14.017,17.039c-1.212,9.903,7.384,16.924,8.046,20.643
												c-23.225-20.819-27.493-31.965-36.56-49.856C467.057,939.684,482.995,871.989,551.463,850.426z"></path>
                      </g>
                    </g>
                    <g>
                      <path fill="#fd0" d="M563.06,837.016c-56.622,9.533-91.452,49.537-88.656,92.672
											c0.881,13.596,5.916,36.777,10.52,37.747c4.537,0.956,10.333-0.268,16.549-0.84c29.535-2.721,47.072-21.894,67.107-22.134
											l102.053-61.115C652.298,850.595,617.372,827.872,563.06,837.016z"></path>
                      <path fill="#e6c803" d="M747.26,902.686c-6.886-22.022-76.153-17.443-76.627-19.341
											C640.462,872.54,565,927.223,568.58,944.461c18.306,5.965,85.923,11.967,112.566-7.835
											c7.745-5.756,20.837-18.283,34.699-25.239C732.99,902.783,749.07,908.475,747.26,902.686z"></path>
                    </g>
                  </g>
                </g>
              </g>
            </g>
          </g>
          <g>
            <g>
              <g>
                <g>
                  <g>
                    <g>
                      <polygon fill="#8c6c40" points="1527.195 2049.512 1569.157 2025.127 1573.647 301.095 1531.685 325.48"></polygon>
                    </g>
                    <path fill="#d4a86e" d="M1495.55,308.643c16.828-1.884,35.169,15.901,36.135,16.837l-4.49,1724.032
										c-0.965-0.936-19.307-18.721-36.135-16.838L1495.55,308.643z"></path>
                    <polygon fill="#d6a562" points="1556.604 335.99 1552.114 1900.878 2335.721 2353.293 2340.21 788.405"></polygon>
                    <polygon fill="#87b87b" points="1605.471 343.655 1601.211 1931.188 2344.705 2360.443 2348.964 772.911"></polygon>
                    <g>
                      <path fill="#b58b55" d="M1438.283,214.211c-1.537,542.127-3.127,1243.174-4.663,1785.301
											c13.677,7.896,43.764,25.267,57.441,33.164c1.443-509.133,2.94-1177.186,4.49-1724.032
											c277.604,160.275,538.798,311.075,816.403,471.35c-1.55,546.846-3.046,1242.912-4.49,1752.044
											c13.677,7.896,43.764,25.267,57.441,33.164c1.537-542.127,3.127-1271.187,4.663-1813.314
											C2064.61,575.82,1743.241,390.278,1438.283,214.211z"></path>
                    </g>
                    <g>
                      <polygon fill="#8c6c40" points="2401.039 2582.039 2443.001 2557.653 2447.771 706.626 2405.809 731.012"></polygon>
                    </g>
                    <path fill="#f5c78c" d="M1441.704,174.386l964.105,556.626c-0.969,0.556-19.391,11.122-36.241,20.876
										l-931.284-537.677C1448.284,200.503,1442.033,175.691,1441.704,174.386z"></path>
                    <path fill="#d4a86e" d="M2369.568,751.888c16.85-9.753,35.272-20.32,36.241-20.876l-4.77,1851.027
										c-0.966-0.936-19.307-18.721-36.135-16.837L2369.568,751.888z"></path>
                    <g>
                      <polygon fill="#d6a562" points="2405.809 731.012 2447.771 706.626 1483.666 150 1441.704 174.386"></polygon>
                    </g>
                    <polygon fill="#a39581" points="2308.588 2339.597 1562.782 1901.862 1600.743 1881.63 1601.981 1749.091 2310.398 1349.922"></polygon>
                  </g>
                  <g opacity=".1">
                    <path fill="#231f20" d="M1950.597,2850c225.649-0.007,438.36-51.047,598.953-143.717l74.506-41.852l-165.045-95.95
										l-37.979,20.765c-125.211,72.257-292.435,112.047-470.866,112.047c-180.255-0.007-349.141-40.479-475.544-113.972
										c-119.608-69.536-185.392-159.606-185.242-253.625c0.151-93.796,65.982-183.4,185.363-252.289l54.968-31.727
										l-165.041-95.95l-18.441,10.64c-167.554,96.69-259.954,227.699-260.183,368.888
										c-0.226,141.448,92.041,273.068,259.811,370.605c162.09,94.234,376.859,146.137,604.69,146.137
										C1950.576,2850,1950.568,2850,1950.597,2850z"></path>
                    <polygon fill="#231f20" points="797.96 2443.312 1521.897 2025.339 1577.797 2058.159 853.856 2476.132"></polygon>
                  </g>
                  <g>
                    <path fill="#5e574a" d="M1143.468,2238.206c-0.331,116.719,76.354,233.645,230.064,323.01
										c306.853,178.399,804.476,179.403,1111.47,2.243l-0.207,72.909c-306.995,177.16-804.616,176.156-1111.47-2.243
										c-153.71-89.365-230.395-206.291-230.064-323.01L1143.468,2238.206z"></path>
                    <g>
                      <g>
                        <defs>
                          <path id="a" d="M1373.787,1917.419l87.415,50.821c-258.695,149.287-258.791,392.176-0.216,542.506
													c258.575,150.331,677.905,151.177,936.6,1.89l87.415,50.821c-306.994,177.16-804.616,176.156-1111.47-2.243
													C1066.678,2382.817,1066.793,2094.579,1373.787,1917.419z"></path>
                        </defs>
                        <use xlink:href="#a" fill="#847868" overflow="visible"></use>
                        <clipPath id="b">
                          <use xlink:href="#a" overflow="visible"></use>
                        </clipPath>
                        <polygon fill="#231f20" points="797.96 2386.156 1521.897 1968.183 1577.797 2001.004 853.856 2418.976" clip-path="url(#b)" opacity=".1"></polygon>
                      </g>
                    </g>
                    <path fill="#6b6254" d="M1267.31,2171.348c-0.279,98.355,64.34,196.885,193.867,272.19
										c258.576,150.331,677.906,151.177,936.6,1.89l-0.191,67.21c-258.695,149.287-678.025,148.441-936.6-1.89
										c-129.526-75.305-194.146-173.834-193.867-272.189L1267.31,2171.348z"></path>
                    <g>
                      <path fill="#8e8370" d="M1461.393,1901.031l90.275,52.484c-208.814,120.502-208.892,316.558-0.174,437.903
											c208.718,121.345,547.194,122.028,756.008,1.526l90.275,52.484c-258.694,149.287-678.025,148.441-936.6-1.89
											C1202.602,2293.207,1202.698,2050.318,1461.393,1901.031z"></path>
                    </g>
                    <g>
                      <defs>
                        <path id="c" d="M1461.393,1901.031l90.275,52.484c-208.814,120.502-208.892,316.558-0.174,437.903
												c208.718,121.345,547.194,122.028,756.008,1.526l90.275,52.484c-258.694,149.287-678.025,148.441-936.6-1.89
												C1202.602,2293.207,1202.698,2050.318,1461.393,1901.031z"></path>
                      </defs>
                      <clipPath id="d">
                        <use xlink:href="#c" overflow="visible"></use>
                      </clipPath>
                      <polygon fill="#231f20" points="797.96 2337.843 1521.897 1919.87 1577.797 1952.691 853.856 2370.663" clip-path="url(#d)" opacity=".1"></polygon>
                    </g>
                    <path fill="#7d7063" d="M1395.178,2111.383c-0.225,79.391,51.935,158.923,156.487,219.707
										c208.717,121.345,547.194,122.028,756.008,1.526l-0.171,60.327c-208.814,120.502-547.29,119.819-756.008-1.526
										c-104.552-60.784-156.712-140.316-156.487-219.707L1395.178,2111.383z"></path>
                    <g>
                      <path fill="#a39581" d="M1551.839,1893.188l377.917,219.714l377.917,219.714
											c-208.814,120.502-547.29,119.819-756.008-1.526C1342.947,2209.746,1343.025,2013.69,1551.839,1893.188z"></path>
                    </g>
                  </g>
                  <g>
                    <defs>
                      <polygon id="e" points="1605.471 343.655 1601.211 1931.188 2307.673 2332.616 2311.933 745.083"></polygon>
                    </defs>
                  </g>
                </g>
                <g>
                  <g>
                    <g>
                      <g>
                        <polygon fill="#737373" points="847.176 2311.995 819.76 2296.063 816.86 750.608 844.276 766.541"></polygon>
                      </g>
                      <g>
                        <polygon fill="#fff" points="844.276 766.541 816.86 750.608 1538.289 334.091 1565.706 350.023"></polygon>
                      </g>
                      <polygon fill="#d1d3d4" points="1565.706 350.023 1568.606 1895.478 847.176 2311.995 844.276 766.541"></polygon>
                    </g>
                  </g>
                  <g>
                    <g>
                      <path fill="#d9d9d9" d="M906.315,1562.783c-14.452,8.344-26.119,28.552-26.072,45.158
											c0.047,16.606,11.79,23.299,26.242,14.955c14.452-8.344,26.119-28.552,26.072-45.158
											C932.511,1561.131,920.767,1554.439,906.315,1562.783z"></path>
                    </g>
                    <g>
                      <g>
                        <g>
                          <path fill="#b59600" d="M911.597,1575.643c4.792-2.767,9.12-3.021,12.236-1.21l38.1,22.142
													c-3.115-1.811-7.444-1.557-12.234,1.21c-9.346,5.396-16.968,18.597-16.937,29.335c0.015,5.436,1.93,9.249,5.006,11.036
													l-38.102-22.142c-3.076-1.788-4.99-5.6-5.006-11.037C894.631,1594.24,902.252,1581.039,911.597,1575.643z"></path>
                          <g>
                            <path fill="#c79c00" d="M949.699,1597.785c-9.346,5.396-16.967,18.597-16.937,29.336
														c0.031,10.901,7.702,15.273,17.048,9.877c9.487-5.477,17.109-18.679,17.078-29.58
														C966.858,1596.68,959.186,1592.308,949.699,1597.785z"></path>
                          </g>
                        </g>
                      </g>
                      <g>
                        <g>
                          <path fill="#edba00" d="M951.388,1582.131c8.622-4.977,16.431-5.442,22.069-2.164l15.631,9.083
													c-5.638-3.276-13.446-2.812-22.068,2.166c-17.135,9.892-30.967,33.85-30.911,53.539
													c0.028,9.781,3.477,16.66,9.044,19.895l-15.631-9.084c-5.566-3.234-9.017-10.115-9.044-19.895
													C920.422,1615.983,934.254,1592.024,951.388,1582.131z"></path>
                          <g>
                            <ellipse cx="967.12" cy="1626.85" fill="#cfa200" rx="43.714" ry="25.32" transform="rotate(-59.834 967.207 1626.856)"></ellipse>
                          </g>
                        </g>
                      </g>
                    </g>
                  </g>
                  <path fill="#808285" d="M1570.003 1650.855 1570.003 1650.855c-10.378 0-18.791-8.413-18.791-18.791v-117.79c0-10.378 8.413-18.791 18.791-18.791h0c10.378 0 18.791 8.413 18.791 18.791v117.79C1588.794 1642.442 1580.381 1650.855 1570.003 1650.855zM1570.003 872.189 1570.003 872.189c-10.378 0-18.791-8.413-18.791-18.791v-117.79c0-10.378 8.413-18.791 18.791-18.791h0c10.378 0 18.791 8.413 18.791 18.791v117.79C1588.794 863.776 1580.381 872.189 1570.003 872.189z"></path>
                </g>
              </g>
            </g>
          </g>
          <g>
            <path fill="#231f20" d="M852.624,1533.078c-7.61,0.52-19.307-3.721-21.751-2.253
						c-0.337,0.629,7.951,8.577,20.939,14.301c15.401,6.787,20.886,8.453,22.626,10.905c12.755,10.959-14.193,38.999-17.885,41.549
						c-13.735,9.483-39.397,3.946-51.265-0.776c-13.299-5.291-23.51-21.781-28.001-30.215c-2.959-5.557-9.204-9.239-13.339-11.821
						c-16.467-10.282-4.791-54.934,5.437-50.447c9.406,4.041,15.599,4.49,23.612,1.61c14.952-5.373,36.488,0.558,39.83,3.179
						c7.32,5.742,23.147,9.127,29.665,9.342c1.716,0.057,3.136,1.468,3.052,3.182
						C865.285,1526.923,862.249,1532.42,852.624,1533.078z" opacity=".1"></path>
            <path fill="#f0c7ad" d="M841.293,1534.21c-7.628-0.007-19.004-5.047-21.543-3.751
						c-0.38,0.605,7.339,9.106,19.901,15.715c14.895,7.836,20.252,9.876,21.818,12.443c11.967,11.815-16.855,37.925-20.715,40.213
						c-14.358,8.511-39.576,1.213-51.089-4.318c-12.902-6.198-21.948-23.354-25.845-32.078c-2.568-5.748-8.543-9.854-12.49-12.715
						c-15.717-11.396-0.982-55.134,8.911-49.951c9.104,4.682,15.251,5.557,23.444,3.238c15.287-4.327,36.363,3.079,39.515,5.925
						c6.905,6.235,22.46,10.705,28.948,11.371c1.708,0.175,3.027,1.681,2.825,3.386
						C854.349,1528.946,850.94,1534.219,841.293,1534.21z"></path>
            <g>
              <path fill="#f2f2f2" d="M453.388,1192.531c-2.085,28.189,10.656,79.559,19,111.174
							c14.5,54.941,30.385,119.958,50.177,148.146c15.122,21.537,226.188,109.01,226.188,109.01
							c24.128-2.352,44.924-57.894,28.128-76.601L593.626,1379.77c0,0-29.5-172.721-45.439-207.421
							C531,1134.931,458.513,1123.255,453.388,1192.531z"></path>
            </g>
          </g>
          <g>
            <defs>
              <rect id="f" width="891.414" height="1490.387" x="1417.323" y="784.814"></rect>
            </defs>
            <clipPath id="g">
              <use xlink:href="#f" overflow="visible"></use>
            </clipPath>
            <g clip-path="url(#g)">
              <g opacity=".1">
                <g>
                  <g>
                    <path fill="#231f20" d="M1688.354,1868.875c-56.17,33.241-63.982,86.758-15.028,125.282
										c53.486,42.099,154.458,50.366,225.532,18.479c6.016-2.701,11.623-5.601,16.818-8.675
										c6.313-3.736,12.015-7.728,17.089-11.924c50.651-39.899,93.308-70.677,136.018-95.952
										c89.896-53.199,179.997-81.987,345.096-119.929c14.919-3.198,29.292-7.766,42.627-13.743
										c6.021-2.702,11.622-5.599,16.821-8.676c56.17-33.241,63.982-86.758,15.019-125.287
										c-53.477-42.095-154.449-50.361-225.524-18.474c-6.015,2.701-11.623,5.601-16.819,8.676
										c-6.314,3.736-12.018,7.73-17.097,11.929c-50.648,39.897-93.303,70.674-136.012,95.949
										c-89.893,53.198-179.994,81.985-345.094,119.927c-14.919,3.198-29.301,7.761-42.627,13.743
										C1699.155,1862.901,1693.552,1865.798,1688.354,1868.875z"></path>
                  </g>
                </g>
              </g>
              <g>
                <g>
                  <g>
                    <g>
                      <path fill="#1a130f" d="M1852.845,1937.163c0,0,59.129-14.144,71.073-30.83c4.145-5.792,0.159-30.757,0.159-30.757
											l-83.063,43.039L1852.845,1937.163z"></path>
                      <path fill="#1a130f" d="M1924.023,1880.475c-2.365,29.594-39.649,33.106-89.01,50.638
											c-51.365,18.244-73.893,30.932-116.506,31.206c-29.353,0.189-67.463-21.469-45.894-37.35
											c34.089-25.1,65.75-20.446,128.272-44.542c40.858-15.747,56.459-41.786,79.943-37.353
											C1900.344,1846.758,1925.969,1856.124,1924.023,1880.475z"></path>
                      <path fill="#3b2d1e" d="M1922.728,1874.929c-2.365,29.594-39.649,33.106-89.01,50.638
											c-51.365,18.244-73.893,30.932-116.506,31.206c-29.353,0.189-67.463-21.47-45.894-37.35
											c34.089-25.1,58.686-28.306,121.208-52.401c40.858-15.746,63.523-33.926,87.007-29.493
											C1899.048,1841.212,1924.674,1850.578,1922.728,1874.929z"></path>
                      <g>
                        <path d="M2325.93,1513.031c15.441,5.35,47.423,48.612,47.423,48.612l-8.358,17.495L2325.93,1513.031z"></path>
                        <path fill="#1a130f" d="M2373.353,1561.643c0,0-31.982-43.262-47.423-48.612
												c-3.63-1.257-27.749-0.805-27.749-0.805l53.612,51.587L2373.353,1561.643z"></path>
                        <path fill="#1a130f" d="M2415.788,1716.76c-22.975,15.884-76.34-53.33-112.066-103.883
												c-35.726-50.553-66.324-69.221-37.038-89.919c29.287-20.698,54.677-15.631,90.403,34.922
												c16.105,22.79,50.382,42.071,66.416,71.947C2438.454,1657.684,2437.575,1701.697,2415.788,1716.76z"></path>
                        <path fill="#3b2d1e" d="M2411.732,1718.188c-22.975,15.883-76.34-53.331-112.065-103.884
												s-66.324-69.221-37.037-89.919c29.286-20.698,53.12-14.711,88.846,35.842c16.105,22.79,48.306,44.538,64.34,74.414
												C2430.766,1662.499,2433.52,1703.126,2411.732,1718.188z"></path>
                      </g>
                      <path fill="#363636" d="M1918.237,1868.101c1.769,29.719-106.412,62.12-124.077,0.406
											c0,0-59.025-258.977-56.965-299.944c2.162-43.004,373.843-251.539,373.843-251.539l66.748,164.832l-307.708,150.331
											L1918.237,1868.101z"></path>
                      <path fill="#4a4a4a" d="M2286.929,1515.107c56.743,1.579,56.454,74.21,25.331,108.857
											c0,0-171.437,170.143-226.083,167.947c-97.616-3.923-86.029-315.635-86.029-315.635s156.458-68.427,170.884-27.746
											c22.157,62.479-19.085,174.26-19.085,174.26S2241.264,1513.836,2286.929,1515.107z"></path>
                    </g>
                  </g>
                </g>
              </g>
            </g>
            <g clip-path="url(#g)">
              <g>
                <g>
                  <g>
                    <g>
                      <g>
                        <path fill="#d1d3d4" d="M2007.676,1179.646c-23.816,9.597-71.789,12.772-101.452,14.291
												c-51.549,2.641-112.2,6.868-142.062-2.465c-22.817-7.131-156.853-165.588-156.853-165.588
												c9.12-22.506,44.265-44.638,53.793-39.011l145.789,123.182c0,0,157.611-22.219,192.044-18.019
												C2036.063,1096.565,2066.204,1156.061,2007.676,1179.646z"></path>
                      </g>
                      <path fill="#f0c7ad" d="M1603.769,931.034c-1.176-15.243-0.839-22.648,3.23-22.902
											c15.132-0.946,23.5,12.545,27.747,23.342c5.138,13.066,10.585,36.548,10.13,45.217c-0.3,5.711,10.74,16.68,12.749,20.626
											c7.999,15.717-22.004,44.999-27.863,36.716c-5.427-7.552-5.487-11.934-13.073-13.447
											c-14.154-2.822-12.482-21.248-12.625-25.104C1603.182,971.846,1606.193,962.458,1603.769,931.034z"></path>
                      <g>
                        <path fill="#fff" d="M2007.676,1179.646c-23.816,9.597-71.789,12.772-101.452,14.291
												c-51.549,2.641-112.2,6.868-142.062-2.465c-22.817-7.131-156.853-165.588-156.853-165.588
												c22.47,5.066,49.501-19.371,53.793-39.011l145.789,123.182c0,0,157.611-22.219,192.044-18.019
												C2036.063,1096.565,2066.204,1156.061,2007.676,1179.646z"></path>
                      </g>
                    </g>
                    <g>
                      <g>
                        <g>
                          <path fill="#e6e7e8" d="M2099.241,1087.654c-7.533-1.198-17.339-0.849-28.278-0.592
													c-18.146,0.426-81.527-15.001-89.46-15.637c-23.493,2.015-57.996,31.568-70.101,74.035
													c-23.513,82.485-6.481,204.866,25.339,320.266l205.873-52.983c1.298-14.742,2.432-30.665,3.005-48.134
													c1.22-37.219,25.806-179.322,21.856-215.69C2163.755,1114.674,2132.933,1093.012,2099.241,1087.654z"></path>
                          <path fill="#4a4a4a" d="M1956.759,1081.164c-10.822,14.404-27.641,37.76-30.034,60.066l21.68,5.151
													c-3.607-26.755,21.645-49.086,30.502-68.669C1971.08,1077.107,1962.043,1076.25,1956.759,1081.164z"></path>
                          <path fill="#4a4a4a" d="M2016.227,1567.889l159.796-105.707c-25.004-115.766-19.478-143.481-18.052-153.627
													c1.105-7.858-83.001-21.899-96.796-56.817c-8.782-22.23-4.61-67.736-1.006-91.104
													c-49.404,0.188-108.107-10.134-127.838-27.13c-12.811,10.347-16.126,42.217-21.753,83.823
													c-2.653,19.609-15.389,28.007-15.016,32.216c11.653,131.365,19.24,252.731,118.636,316.819
													C2014.852,1566.784,2015.53,1567.302,2016.227,1567.889z"></path>
                          <path fill="#4a4a4a" d="M2058.707,1169.974l-17.59-5.582c11.148-45.405,30.398-69.846,61.9-76.521
													c4.81-1.37,14.595,0.855,17.075,5.137C2089.341,1106.322,2070.029,1130.361,2058.707,1169.974z"></path>
                          <path fill="#ccaa92" d="M1940.015,972.462l26.458,122.902c0,0,0.425,24.99,24.794,27.784
													c35.715,4.095,79.871-20.363,79.496-35.286l-24.45-144.87L1940.015,972.462z"></path>
                        </g>
                      </g>
                    </g>
                    <path fill="#f0c7ad" d="M2087.66,1020.223c-11.317,31.924-32.694,68.116-57.122,76.766
										c-25.579,9.058-47.708,25.501-73.886,19.023c-29.626-7.331-40.487-61.428-24.1-117.115
										c3.053-10.375,7.877-30.409,10.791-41.157c2.33-8.591-2.12-18.651,13.424-37.592
										c20.428-24.891,58.053-30.116,94.879-17.045C2115.022,925.601,2110.293,956.375,2087.66,1020.223z"></path>
                    <path fill="#734731" d="M1926.213,1079.297c-1.211,17.481,6.918,27.222,20.806,34.985
										c33.233,18.578,71.275-5.487,90.443-19.851c10.87-8.146,18.613-58.556,18.613-58.556l-12.146-0.099
										c0,0-7.565,37.79-16.991,47.146c-12.932,12.834-58.163,36.603-78.655,14.86c-4.25-4.509-7.635-12.867-11.109-16.32
										C1932.58,1076.894,1928.33,1078.882,1926.213,1079.297z"></path>
                    <path fill="#734731" d="M2053.288,898.471c-35.024-12.837-82.357-8.775-101.706,26.371
										c-3.335,6.058-16.393,16.006-7.304,21.016c7.933-9.358,25.872,20.846,50.028,26.28
										c23.239,5.228,28.182,10.418,48.845,39.063c4.246,5.885,1.35,22.001,0.332,26.023c2.336,1.703,5.342,3.829,8.832,6.966
										c5.565-9.632,6.588-26.605,15.889-23.809c9.638,2.897,6.364,16.994,0.775,28.328c-3.783,7.674-13.105,26.09-13.849,29.547
										c6.212,5.363,22.608-29.99,31.679-46.426C2118.436,974.529,2116.242,921.545,2053.288,898.471z"></path>
                    <g>
                      <path fill="#734731" d="M1965.657,1066.206c-1.096-14.536-12.411-30.372-25.625-33.852
											c-0.509-0.134-2.609,13.815-1.385,14.292c9.005,3.521,19.899,12.328,21.414,25.665
											C1962.869,1076.641,1966.104,1075.141,1965.657,1066.206z"></path>
                    </g>
                    <g>
                      <path fill="#734731" d="M1930.037,1079.571c-0.54-7.493-1.211-33.977,8.574-32.866
											c0.932,0.106,1.947-14.176,1.58-14.255c-15.913-3.417-18.055,36.895-13.994,48.751L1930.037,1079.571z"></path>
                    </g>
                    <path fill="#734731" d="M1959.478,1106.887l-9.69-0.42c1.744-17.62,12.685-25.776,9.508-41.992l4.652-0.943
										C1967,1079.627,1960.39,1088.698,1959.478,1106.887z"></path>
                    <g>
                      <path fill="#e6c803" d="M1999.565,1011.191c16.278-4.625,111.065,11.537,41.157-10.287l-93.65-76.55
											c0,0-54.734,1.955-58.725,16.686C1884.003,957.078,1983.39,1015.787,1999.565,1011.191z"></path>
                      <path fill="#fd0" d="M1947.683,916.583c-11.205,17.048,15.182,18.775,49.697,51.859
											c45.233,43.359,86.381,64.229,99.997,44.957c41.142-58.231,11.245-114.816-46.434-129.344
											C2006.302,872.811,1960.644,896.864,1947.683,916.583z"></path>
                    </g>
                  </g>
                </g>
              </g>
            </g>
            <g clip-path="url(#g)">
              <g>
                <path fill="#d1d3d4" d="M2176.326,1160.337c1.536,28.224-12.204,79.336-21.162,110.782
								c-15.567,54.649-32.716,119.344-53.052,147.141c-15.539,21.239-228.268,104.584-228.268,104.584
								c-20.208-17.501-30.779-61.983-21.53-69.911l180.153-108.126c0,0,32.859-172.114,49.471-206.497
								C2099.85,1101.236,2172.552,1090.974,2176.326,1160.337z"></path>
              </g>
              <path fill="#f0c7ad" d="M1796.38,1499.178c-0.465,12.077-8.808,13.213-19.378,25.544
							c-10.953,12.778-19.524,6.273-21.14,8.808c-12.195,11.58,21.444,23.12,25.259,25.483c14.19,8.789,39.544,1.983,51.163-3.322
							c13.02-5.945,22.398-22.922,26.465-31.569c2.68-5.697,8.733-9.685,12.735-12.469c15.936-11.088,2.056-55.104-7.937-50.115
							c-9.193,4.504-15.356,5.259-23.503,2.781c-15.2-4.624-36.416,2.37-39.623,5.154
							C1793.395,1475.573,1793.866,1497.832,1796.38,1499.178z"></path>
              <g>
                <path fill="#fff" d="M2176.326,1160.337c1.536,28.224-12.204,79.336-21.162,110.782
								c-15.567,54.649-32.716,119.344-53.052,147.141c-15.539,21.239-228.268,104.584-228.268,104.584
								c13.264-21.611-2.592-58.46-21.53-69.911l180.153-108.126c0,0,32.859-172.114,49.471-206.497
								C2099.85,1101.236,2172.552,1090.974,2176.326,1160.337z"></path>
              </g>
            </g>
            <g clip-path="url(#g)">
              <g>
                <g>
                  <g>
                    <g>
                      <g>
                        <g>
                          <g>
                            <path fill="#993131" d="M1775.933,1543.575c-0.256-0.149-0.605-0.137-0.992,0.063l-1.909,0.992
														c-0.641,0.334-1.223,0.356-1.652,0.107l19.721,11.46c0.428,0.249,1.01,0.227,1.651-0.107l1.909-0.993
														c0.387-0.2,0.736-0.212,0.992-0.063L1775.933,1543.575z"></path>
                            <g>
                              <defs>
                                <path id="h" d="M1760.669,1581.368l-19.721-11.46
																c-0.287-0.167-0.459-0.533-0.441-1.051l19.72,11.46C1760.209,1580.836,1760.381,1581.201,1760.669,1581.368z" enable-background="new"></path>
                              </defs>
                              <clipPath id="i">
                                <use xlink:href="#h" overflow="visible"></use>
                              </clipPath>
                              <g clip-path="url(#i)">
                                <path fill="#858585" d="M1760.669,1581.368l-19.721-11.46c-0.287-0.167-0.459-0.533-0.441-1.051l19.72,11.46
																C1760.209,1580.836,1760.381,1581.201,1760.669,1581.368L1760.669,1581.368z"></path>
                              </g>
                            </g>
                            <g>
                              <polygon fill="#993131" points="1760.228 1580.318 1740.507 1568.857 1740.643 1565.081 1760.363 1576.542"></polygon>
                            </g>
                            <path fill="#d45959" d="M1743.752,1561.546l-1.694,1.074c-0.771,0.49-1.385,1.557-1.416,2.462l19.72,11.46
														c0.03-0.905,0.644-1.973,1.415-2.462l1.694-1.074L1743.752,1561.546z"></path>
                            <path fill="#993131" d="M1766.028,1557.195c-0.043-15.249-0.729-38.406-0.766-39.625l-19.72-11.46
														c0.036,1.219,0.722,24.377,0.765,39.625c0.017,6.09-0.089,9.691-0.202,11.779c-0.079,1.495-1.091,3.231-2.353,4.032
														l19.72,11.46c1.262-0.801,2.274-2.536,2.354-4.032C1765.939,1566.886,1766.046,1563.285,1766.028,1557.195z"></path>
                            <g>
                              <path fill="#e84b4b" d="M1796.403,1559.342c0.089,0.973-0.611,2.265-1.504,2.781l-33.15,19.14
															c-0.863,0.498-1.556,0.069-1.521-0.945l0.135-3.776c0.03-0.905,0.644-1.973,1.415-2.462l1.694-1.074
															c1.262-0.801,2.274-2.536,2.354-4.032c0.113-2.087,0.219-5.688,0.202-11.779c-0.043-15.249-0.729-38.406-0.766-39.625
															l30-17.321c-0.376,0.642-7.521,12.841-7.83,23.53c-0.538,18.617,2.08,25.793,2.979,31.281
															c0.2,1.211,1.173,1.639,2.341,1.03l1.909-0.993c0.744-0.385,1.348-0.072,1.422,0.738L1796.403,1559.342z"></path>
                            </g>
                            <g>
                              <polygon fill="#dbdbdb" points="1765.263 1517.57 1745.542 1506.11 1775.543 1488.789 1795.263 1500.249"></polygon>
                            </g>
                          </g>
                          <g>
                            <path fill="#58595b" d="M1751.025,1527.942c-0.077,0.303-1.548,6.055-3.223,10.938
														c-1.077,3.144-2.928,6.321-4.128,8.209c-0.571,0.897-0.572,1.884-0.063,2.18l7.8,4.532
														c-0.509-0.295-0.509-1.283,0.063-2.18c1.199-1.889,3.052-5.065,4.128-8.209c1.674-4.883,3.145-10.636,3.223-10.938
														L1751.025,1527.942z"></path>
                            <g>
                              <path fill="#808285" d="M1758.825,1532.475l0.054,19.094c-0.467,0.532-1.018,0.963-1.612,1.306
															c-1.869,1.079-4.167,1.284-5.655,1.001c-0.701-0.136-0.776-1.252-0.138-2.254c1.199-1.889,3.052-5.065,4.128-8.209
															C1757.276,1538.53,1758.747,1532.777,1758.825,1532.475z"></path>
                            </g>
                          </g>
                          <g>
                            <path fill="#808285" d="M1755.317,1515.36c-0.026,0.189-0.512,3.779-0.685,5.039
														c-0.344,2.533-1.443,4.317-3.033,5.241l49.301-28.651c1.589-0.924,2.689-2.708,3.033-5.241
														c0.173-1.26,0.66-4.85,0.685-5.039L1755.317,1515.36z"></path>
                            <g>
                              <polygon fill="#dcdcdc" points="1727.249 1499.155 1776.549 1470.504 1804.617 1486.709 1755.317 1515.36"></polygon>
                            </g>
                            <g>
                              <path fill="#58595b" d="M1755.317,1515.36c-0.026,0.189-0.512,3.779-0.685,5.039
															c-0.771,5.679-5.339,7.592-10.713,4.49l-16.715-9.65l0.046-16.084L1755.317,1515.36z"></path>
                            </g>
                          </g>
                        </g>
                        <g>
                          <g>
                            <path fill="#fff" d="M1813.134 1455.046c-.171.118-.345.231-.524.335C1812.77 1455.283 1812.951 1455.166 1813.134 1455.046zM1813.189 1455.01c-.018.012-.036.024-.055.036C1813.152 1455.034 1813.171 1455.023 1813.189 1455.01z"></path>
                            <path fill="#f04d4d" d="M1818.534,1434.978c-0.3-1.067-0.611-2.17-0.964-3.066
														c-0.178-0.452-0.396-1.064-0.596-1.507c-0.887-1.976-0.887-1.976-1.403-2.944c-0.515-0.967-0.515-0.967-1.665-2.818
														c-0.258-0.416-0.645-0.943-0.922-1.347c-0.295-0.43-1.265-1.704-2.066-2.609c-0.402-0.454-1.24-1.399-2.318-2.395
														c-1.501-1.386-2.604-2.151-2.615-2.158c-0.368-0.252-0.85-0.603-1.228-0.839c-0.501-0.314-1.175-0.728-1.703-0.996
														c-1.04-0.527-1.938-0.982-3.672-1.511c-1.487-0.453-2.83-0.573-3.335-0.618c-0.531-0.047-1.244-0.036-1.777-0.022
														c-0.313,0.008-0.729,0.063-1.041,0.093c-0.011,0.001-1.121,0.112-2.499,0.577c-0.424,0.143-0.974,0.378-1.382,0.563
														c-0.27,0.123-0.612,0.324-0.875,0.463c3.028-1.76,7.198-1.559,11.826,1.019c9.41,5.244,17.146,18.337,17.28,29.244
														c0.064,5.192-1.607,8.953-4.391,10.903c0.248-0.164,0.495-0.334,0.701-0.484c0.24-0.174,0.538-0.435,0.762-0.629
														c0.439-0.378,1.079-1.054,1.457-1.537c0.783-1.001,1.684-2.326,2.436-4.567c0.21-0.626,0.502-1.667,0.703-3.073
														c0.077-0.542,0.137-1.271,0.17-1.818c0.026-0.422,0.026-0.988,0.026-1.411
														C1819.442,1438.823,1818.81,1435.956,1818.534,1434.978z"></path>
                          </g>
                          <path fill="#58595b" d="M1800.3,1414.864c-4.628-2.579-8.798-2.779-11.826-1.019l-14.332,8.329
													c3.028-1.76,7.198-1.559,11.826,1.019c9.41,5.244,17.146,18.337,17.28,29.243c0.068,5.543-1.841,9.455-4.97,11.274
													l14.332-8.329c3.129-1.818,5.038-5.73,4.97-11.274C1817.446,1433.2,1809.71,1420.108,1800.3,1414.864z"></path>
                          <path fill="#e84b4b" d="M1818.915,1462.597c-0.045-0.947-0.094-2.21-0.178-3.154
													c-0.094-1.066-0.231-2.488-0.415-3.541c-0.35-1.995-0.89-4.643-1.348-6.615c-0.25-1.073-0.67-2.483-1.011-3.53
													c-1.25-3.838-2.092-5.872-2.484-6.744c-0.445-0.992-0.996-2.335-1.486-3.306c-0.493-0.977-1.129-2.292-1.644-3.258
													c-0.516-0.97-1.233-2.249-1.793-3.194c-3.2-5.401-6.895-10.289-10.981-14.529c-0.724-0.751-1.712-1.732-2.474-2.444
													c-0.829-0.774-1.976-1.76-2.83-2.506c-0.933-0.815-2.24-1.832-3.26-2.536c-1.537-1.061-3.609-2.453-5.246-3.352
													c-0.995-0.546-2.347-1.227-3.375-1.708c-0.735-0.344-1.736-0.76-2.498-1.041c-1.299-0.478-3.053-1.071-4.405-1.365
													c-0.674-0.147-1.57-0.36-2.253-0.461c-1.033-0.152-2.418-0.333-3.461-0.38c-1.96-0.09-3.473-0.001-5.016,0.208
													c-1.99,0.27-3.583,0.743-4.568,1.092c-0.515,0.182-1.193,0.453-1.696,0.666c-0.593,0.251-1.373,0.611-1.958,0.879
													c-2.984,1.369-5.261,2.523-5.687,2.74c-3.241,1.654-4.344,2.266-6.345,3.377c-1.658,0.92-3.159,1.835-4.366,2.569
													c-1.602,0.976-2.521,1.604-4.35,2.855c-0.731,0.499-1.678,1.204-2.377,1.746c-1.399,1.085-3.249,2.589-5.144,4.605
													c-0.536,0.57-1.243,1.343-1.706,1.973c-0.828,1.13-1.879,2.679-2.591,3.885c-0.847,1.435-1.626,3.538-2.18,5.109
													c-0.594,1.685-1.067,4.039-1.313,5.808c-0.267,1.917-0.347,4.504-0.394,6.439c0.062,4.927,0.846,8.889,1.141,10.38
													c1.039,5.252,2.792,9.956,2.979,10.439c0.4,1.033,0.903,2.425,1.357,3.436c0.457,1.018,1.044,2.386,1.524,3.393
													c0.482,1.011,1.134,2.358,1.682,3.335c0.55,0.979,1.261,2.297,1.833,3.264c0.571,0.966,1.361,2.238,1.974,3.178
													c0.516,0.792,2.088,3.201,4.34,6.041c0.685,0.865,1.623,2,2.348,2.832c0.719,0.826,1.723,1.886,2.462,2.694
													c0.732,0.8,1.777,1.801,2.569,2.541c1.544,1.441,3.734,3.216,5.391,4.525c0.819,0.647,1.964,1.443,2.853,1.989
													c1.325,0.812,3.087,1.914,4.486,2.591c1.685,0.815,4.002,1.761,5.771,2.372c0.835,0.289,1.973,0.615,2.843,0.768
													c1.653,0.291,3.871,0.66,5.549,0.71c0.805,0.024,1.883,0.025,2.685-0.054c1.287-0.126,3.002-0.348,4.265-0.628
													c0.911-0.202,2.12-0.507,3.006-0.802c1.434-0.477,3.318-1.197,4.718-1.765c0.163-0.066,1.68-0.692,4.673-2.218
													c1.342-0.684,1.879-0.986,4.457-2.438c0.015-0.008,1.539-0.868,4.247-2.552c1.692-1.052,3.281-2.102,3.959-2.55
													c2.681-1.772,6.165-4.239,7.606-5.387c0.429-0.341,0.983-0.82,1.372-1.207c0.618-0.615,1.41-1.468,1.978-2.129
													c0.907-1.056,2.167-2.948,2.868-4.307c1.088-2.106,1.639-3.466,2.361-5.82c0.207-0.675,0.451-1.586,0.588-2.278
													c0.251-1.27,0.549-2.973,0.702-4.258C1819.018,1466.01,1818.916,1462.627,1818.915,1462.597z M1752.92,1501.74
													c-18.665-10.401-34.011-36.372-34.276-58.007l0,0c-0.265-21.635,14.651-30.741,33.316-20.34
													c18.665,10.401,34.011,36.372,34.276,58.007S1771.586,1512.141,1752.92,1501.74z"></path>
                          <path fill="#dedede" d="M1739.718,1491.877c0.732,0.8,1.777,1.801,2.569,2.541
													c1.544,1.441,3.734,3.216,5.391,4.525c0.819,0.647,1.964,1.443,2.853,1.989c1.325,0.812,3.087,1.914,4.486,2.591
													c1.685,0.815,4.002,1.761,5.771,2.372c0.835,0.289,1.973,0.615,2.843,0.768c1.653,0.291,3.871,0.66,5.549,0.71
													c0.805,0.024,1.883,0.025,2.685-0.054c1.287-0.126,3.002-0.348,4.265-0.628c0.911-0.202,2.12-0.507,3.006-0.802
													c1.434-0.477,3.318-1.197,4.718-1.765c0.163-0.066,1.68-0.692,4.673-2.218c1.342-0.684,1.879-0.986,4.457-2.438
													c0.015-0.008,1.539-0.868,4.247-2.552c1.692-1.052,3.281-2.102,3.959-2.55c2.681-1.772,6.165-4.239,7.606-5.387
													c0.429-0.341,0.983-0.82,1.372-1.207c0.618-0.615,1.41-1.468,1.978-2.129c0.907-1.056,2.167-2.948,2.868-4.307
													c1.088-2.106,1.639-3.466,2.361-5.82c0.207-0.675,0.451-1.586,0.588-2.278c0.251-1.27,0.549-2.973,0.702-4.258
													c0.354-2.969,0.252-6.352,0.251-6.383c-0.045-0.947-0.094-2.21-0.178-3.154c-0.094-1.066-0.231-2.488-0.415-3.541
													c-0.35-1.995-0.89-4.643-1.348-6.615c-0.25-1.073-0.67-2.483-1.011-3.53c-0.4-1.228-0.758-2.27-1.073-3.149
													l-32.604,18.824c2.446,6.69,3.873,13.522,3.952,19.969c0.265,21.635-14.651,30.741-33.317,20.34
													c-5.905-3.291-11.475-8.142-16.343-13.919l-0.321,0.185c0.348,0.418,0.693,0.825,1,1.177
													C1737.975,1490.009,1738.979,1491.069,1739.718,1491.877z"></path>
                        </g>
                        <g>
                          <path fill="#a3a3a3" d="M1788.425,1493.121c-0.059,0-0.118-0.007-0.177-0.022
													c-0.374-0.097-0.598-0.479-0.502-0.853c3.858-14.888-1.877-33.377-9.271-45.096c-0.206-0.326-0.108-0.759,0.218-0.965
													c0.331-0.208,0.76-0.107,0.965,0.218c7.555,11.974,13.405,30.901,9.443,46.194
													C1789.019,1492.911,1788.735,1493.121,1788.425,1493.121z"></path>
                        </g>
                        <path fill="#a3a3a3" d="M1797.575,1414.726c-0.724-0.751-1.712-1.732-2.474-2.444
												c-0.829-0.774-1.976-1.76-2.83-2.506c-0.933-0.815-2.24-1.832-3.26-2.536c-1.537-1.061-3.609-2.453-5.246-3.352
												c-0.366-0.201-0.781-0.42-1.211-0.641l-32.86,18.972c0.749,0.36,1.505,0.749,2.267,1.174
												c5.18,2.886,10.102,6.975,14.519,11.834l32.641-18.845C1798.611,1415.819,1798.097,1415.267,1797.575,1414.726z"></path>
                        <g>
                          <g>
                            <g>
                              <path fill="#58595b" d="M1751.454,1423.075c-10.105-5.631-19.152-5.757-25.459-1.403
															c-3.533,2.471-70.673,49.414-96.153,67.003c5.08-3.507,12.366-3.406,20.505,1.13
															c15.612,8.7,28.448,30.422,28.669,48.518c0.119,9.731-3.434,16.432-9.172,19.195
															c27.897-13.431,101.922-48.524,105.818-50.371c7.124-3.43,11.536-11.75,11.388-23.832
															C1786.774,1460.847,1770.838,1433.877,1751.454,1423.075z"></path>
                              <path fill="#ff6868" d="M1650.346,1489.805c-8.139-4.535-15.425-4.637-20.505-1.13
															c-5.639,3.896-7.962,8.84-8.837,10.702c-0.509,1.084-1.034,2.599-1.387,3.743c-0.298,0.965-0.583,2.284-0.777,3.275
															c-0.13,0.667-0.275,1.563-0.33,2.24c-0.113,1.39-0.203,3.248-0.228,4.643c0.036,1.932,0.152,3.436,0.418,5.364
															c0.296,2.154,0.732,3.922,1.02,5.091c0.902,3.662,2.569,7.656,3.482,9.512c0.333,0.677,0.763,1.587,1.132,2.244
															c0.369,0.657,0.847,1.543,1.231,2.192c0.384,0.65,0.93,1.497,1.329,2.139c0.807,1.298,1.848,2.661,2.95,4.104
															c0.014,0.018,1.496,1.927,3.357,3.849c1.636,1.69,2.364,2.315,3.816,3.56c1.495,1.283,2.702,2.092,4.371,3.212
															c0.882,0.592,2.119,1.289,3.064,1.775c1.22,0.628,2.898,1.372,4.185,1.849c1.148,0.425,2.711,0.924,3.914,1.151
															c1.223,0.23,2.859,0.549,4.101,0.617c0.973,0.054,2.274,0.075,3.249,0.056c0.592-0.012,1.379-0.098,1.968-0.159
															c0.879-0.092,2.038-0.328,2.902-0.516c0.567-0.123,1.306-0.357,1.863-0.519c0.996-0.289,2.26-0.867,3.212-1.281
															c5.738-2.763,9.291-9.464,9.172-19.195C1678.794,1520.228,1665.958,1498.505,1650.346,1489.805z M1639.778,1547.926
															c-8.98-5.004-16.362-17.498-16.49-27.906c-0.128-10.408,7.049-14.789,16.028-9.785
															c8.98,5.004,16.362,17.498,16.49,27.906C1655.934,1548.549,1648.758,1552.93,1639.778,1547.926z"></path>
                              <path fill="#ff6868" d="M1622.434,1522.906c-0.105-8.54,5.783-12.135,13.151-8.029
															c7.368,4.106,13.425,14.357,13.53,22.897s-5.783,12.134-13.151,8.028
															C1628.595,1541.698,1622.538,1531.446,1622.434,1522.906z"></path>
                            </g>
                            <path fill="#6d6e71" d="M1787.049,1483.315c-0.066-5.354-1.03-10.964-2.709-16.55l-106.614,61.555
														c0.797,3.387,1.249,6.754,1.289,10.004c0.119,9.731-3.434,16.432-9.172,19.195
														c27.897-13.431,101.922-48.524,105.818-50.371C1782.786,1503.717,1787.197,1495.397,1787.049,1483.315z"></path>
                          </g>
                        </g>
                      </g>
                    </g>
                  </g>
                </g>
              </g>
              <g>
                <g>
                  <path fill="#4a4b4c" d="M1655.355,1554.047l-2.267,1.301c3.476-1.994,5.663-6.241,5.755-12.302
									c0.187-12.324-8.36-27.481-19.092-33.853c-5.454-3.238-10.422-3.585-14.014-1.524l2.267-1.301
									c3.592-2.061,8.561-1.714,14.015,1.524c10.731,6.372,19.279,21.529,19.092,33.853
									C1661.018,1547.807,1658.831,1552.054,1655.355,1554.047z"></path>
                  <g>
                    <path fill="#636466" d="M1639.073,1553.823c-10.731-6.372-19.279-21.528-19.092-33.853
										c0.188-12.324,9.039-17.149,19.77-10.777c10.731,6.372,19.279,21.529,19.092,33.853
										C1658.655,1555.371,1649.804,1560.196,1639.073,1553.823z M1639.118,1550.824c9.289,5.516,16.95,1.339,17.112-9.329
										c0.162-10.667-7.237-23.786-16.526-29.302c-9.289-5.516-16.95-1.339-17.112,9.328
										C1622.431,1532.189,1629.83,1545.308,1639.118,1550.824L1639.118,1550.824z"></path>
                  </g>
                  <path fill="#808285" d="M1629.778,1555.406c-0.377-0.24-0.888-0.547-1.257-0.8c-0.442-0.303-1.019-0.726-1.442-1.054
									c-0.754-0.585-1.708-1.432-2.393-2.096c-0.784-0.76-1.574-1.614-2.349-2.538c-0.982-1.171-1.677-2.164-2.092-2.757
									c-0.151-0.216-0.952-1.376-1.831-2.933c-0.565-1.001-1.087-2.031-1.553-3.064c-0.48-1.063-0.891-2.099-1.259-3.167
									c-0.321-0.934-0.682-2.202-0.919-3.16c-0.037-0.152-0.373-1.531-0.572-3.169c-0.149-1.222-0.159-1.658-0.192-3.106
									c-0.011-0.488,0.029-1.138,0.063-1.624c0.027-0.383,0.096-0.89,0.139-1.272c0.057-0.498,0.18-1.159,0.315-1.642
									c0.171-0.61,0.387-1.432,0.638-2.013c0.114-0.262,0.25-0.619,0.384-0.872c0.257-0.486,0.6-1.137,0.916-1.587
									c0.25-0.357,0.613-0.812,0.894-1.145c0.162-0.193,0.399-0.432,0.583-0.604c0.281-0.262,0.67-0.598,0.978-0.828
									c0.296-0.221,0.713-0.485,1.029-0.676c3.109-1.783,7.41-1.484,12.13,1.32c9.289,5.516,16.688,18.635,16.525,29.302
									c-0.08,5.246-1.973,8.922-4.982,10.648c-0.434,0.227-1.022,0.516-1.477,0.697c-0.356,0.142-0.846,0.298-1.22,0.378
									c-0.507,0.109-1.19,0.238-1.707,0.278c-0.26,0.02-1.05,0.082-1.943,0.006c-0.547-0.046-1.275-0.141-1.811-0.26
									c-0.662-0.147-1.531-0.406-2.173-0.624c-0.559-0.19-1.28-0.514-1.813-0.77
									C1630.893,1556.038,1630.253,1555.681,1629.778,1555.406c-0.406-0.241-0.651-0.752-0.64-1.479L1629.778,1555.406z"></path>
                  <path fill="#939598" d="M1651.249,1552.144l-7.716,4.426c3.009-1.725,4.902-5.402,4.982-10.648
									c0.162-10.668-7.236-23.787-16.525-29.302c-4.721-2.803-9.021-3.103-12.13-1.32l7.717-4.426
									c3.109-1.784,7.41-1.484,12.13,1.32c9.289,5.516,16.688,18.635,16.526,29.302
									C1656.151,1546.742,1654.257,1550.418,1651.249,1552.144z"></path>
                  <g>
                    <path fill="#a1a3a6" d="M1650.024 1552.844c.097-.056.194-.111.291-.167l-5.915 3.392C1646.275 1554.995 1648.149 1553.919 1650.024 1552.844L1650.024 1552.844zM1645.641 1555.026c-.095.098-.1.107-.132.166.064.021.088.029.462-.183l5.225-2.997c.053-.031 1.305-.763 1.442-1.104-.011-.01-.025-.025-.036-.035-.088.01-.152.017-.45.183l-5.225 2.997C1646.299 1554.423 1645.785 1554.881 1645.641 1555.026L1645.641 1555.026zM1647.36 1552.644c-.132.278-.074.38.173.303.104-.032.195-.082.291-.135l5.225-2.997c.89-.532 1.461-1.32 1.176-1.453-.135-.063-.393.077-.491.13l-5.225 2.997C1647.849 1551.888 1647.456 1552.458 1647.36 1552.644L1647.36 1552.644zM1648.473 1549.519c-.085.465.145.593.616.342l5.225-2.997c.944-.58 1.353-1.696.81-1.784-.164-.026-.333.062-.434.115l-5.225 2.997C1648.873 1548.56 1648.547 1549.187 1648.473 1549.519L1648.473 1549.519zM1648.903 1545.694c.014.564.308.753.787.506l5.225-2.997c.929-.586 1.132-1.915.494-2.074-.191-.048-.362.039-.464.092l-5.225 2.997C1649.131 1544.593 1648.909 1545.306 1648.903 1545.694L1648.903 1545.694zM1648.595 1541.43c.116.591.485.807.963.565l5.225-2.997c.901-.579.892-1.991.174-2.167-.218-.053-.391.033-.494.085l-5.225 2.997C1648.653 1540.292 1648.533 1541.028 1648.595 1541.43L1648.595 1541.43zM1647.594 1537.051c.208.601.638.823 1.122.581l5.225-2.997c.896-.582.689-2.009-.113-2.19-.241-.054-.409.029-.52.085l-5.225 2.997C1647.456 1535.936 1647.489 1536.703 1647.594 1537.051L1647.594 1537.051zM1645.976 1532.688c.29.591.774.808 1.264.565l5.225-2.997c.892-.584.509-1.986-.368-2.155-.262-.05-.431.034-.543.089l-5.225 2.997C1645.706 1531.596 1645.826 1532.348 1645.976 1532.688L1645.976 1532.688zM1643.768 1528.397c.364.562.896.76 1.389.516l5.225-2.997c.832-.547.383-1.823-.496-2.04-.334-.082-.555.027-.661.08l-5.225 2.997C1643.381 1527.359 1643.578 1528.075 1643.768 1528.397L1643.768 1528.397zM1641.132 1524.472c.426.515.998.681 1.494.435l5.225-2.997c.831-.546.26-1.724-.679-1.892-.354-.064-.577.048-.684.101l-5.225 2.997C1640.649 1523.518 1640.908 1524.179 1641.132 1524.472L1641.132 1524.472zM1638.104 1520.965c.478.448 1.084.572 1.581.323l5.225-2.997c.784-.512.213-1.507-.722-1.673-.433-.077-.698.057-.811.114l-5.225 2.997C1637.543 1520.125 1637.854 1520.71 1638.104 1520.965L1638.104 1520.965zM1634.759 1518.007c.52.363 1.152.432 1.65.179l5.225-2.997c.699-.452.232-1.215-.612-1.391-.38-.079-.735-.037-1.055.126l-5.225 2.997C1634.138 1517.311 1634.489 1517.802 1634.759 1518.007L1634.759 1518.007zM1631.192 1515.742c.534.249 1.195.246 1.684-.006l5.225-2.997c.602-.384.313-.886-.327-1.046-.168-.042-.766-.154-1.382.168l-5.225 2.997C1630.567 1515.236 1630.901 1515.592 1631.192 1515.742L1631.192 1515.742zM1627.736 1514.39c.507.115 1.147.022 1.631-.235l5.225-2.997c.556-.345.344-.623.017-.71-.348-.093-1.002-.042-1.615.288l-5.225 2.997C1627.032 1514.183 1627.662 1514.37 1627.736 1514.39L1627.736 1514.39zM1624.548 1513.964c.36-.013.984-.139 1.56-.453l5.225-2.997c.656-.396.222-.482.218-.482-.286-.053-.989.118-1.669.494l-5.225 2.997c-.533.317-.377.408-.237.434C1624.457 1513.964 1624.509 1513.965 1624.548 1513.964L1624.548 1513.964zM1621.705 1514.424c.127-.044.795-.282 1.469-.661l5.225-2.997c.294-.172.334-.219.391-.284-.009-.013-.021-.03-.029-.042-.363.049-1.26.542-1.629.751l-5.225 2.997c-.303.176-.341.207-.403.26C1621.563 1514.472 1621.563 1514.472 1621.705 1514.424L1621.705 1514.424z"></path>
                  </g>
                  <g>
                    <path fill="#464547" d="M1628.104,1550.018c-5.831-3.462-10.475-11.698-10.374-18.395
										c0.102-6.697,4.911-9.318,10.742-5.856c5.831,3.462,10.475,11.698,10.374,18.395
										C1638.745,1550.859,1633.935,1553.481,1628.104,1550.018z"></path>
                  </g>
                </g>
              </g>
              <g>
                <g>
                  <path fill="#58595b" d="M1608.968,1537.597c6.842-3.021,14.734,10.524,10.465,15.778
									C1613.775,1556.804,1603.81,1541.78,1608.968,1537.597z"></path>
                  <path fill="#6d6e71" d="M1608.968,1537.597l11.791-6.507c4.583-2.47,9.272-0.385,11.746,4.198
									c1.263,2.341,1.688,4.877,1.204,7.131c-0.464,2.157-1.759,4.057-4,5.266l-10.277,5.691
									C1623.703,1548.12,1615.811,1534.575,1608.968,1537.597z"></path>
                </g>
                <polygon fill="#58595b" points="1597.066 1551.596 1608.506 1538.261 1618.013 1553.86 1599.436 1555.722"></polygon>
              </g>
            </g>
            <path fill="#f0c7ad" d="M1835.749,1500.646h-39.491c0.416,1.468-7.512,12.919-19.257,18.498
						c-15.202,7.221-23.928,8.328-25.544,10.864c-12.195,11.58,25.848,26.643,29.663,29.006c14.19,8.789,39.545,1.984,51.163-3.322
						c10.393-4.746,18.41-16.469,23.313-25.426C1849.46,1520.427,1843.53,1510.307,1835.749,1500.646z" clip-path="url(#g)"></path>
          </g>
        </g>
      </g>
    </g>
  </switch>
</svg>
